<?xml version="1.0" standalone="no"?>
<!DOCTYPE svg PUBLIC "-//W3C//DTD SVG 20010904//EN"
 "http://www.w3.org/TR/2001/REC-SVG-20010904/DTD/svg10.dtd">
<svg version="1.0" xmlns="http://www.w3.org/2000/svg"
 width="260.000000pt" height="260.000000pt" viewBox="0 0 260.000000 260.000000"
 preserveAspectRatio="xMidYMid meet">
<metadata>
Created by potrace 1.14, written by Peter Selinger 2001-2017
</metadata>
<g transform="translate(0.000000,260.000000) scale(0.100000,-0.100000)"
fill="#000000" stroke="none">
<path d="M21 2575 c-9 -13 -8 -2551 1 -2561 4 -4 14 -2 21 4 8 7 17 9 21 5 11
-11 485 -10 479 1 -4 5 0 6 8 0 20 -12 120 -13 112 -1 -4 6 -1 7 8 1 20 -12
120 -13 112 -1 -4 6 -1 7 8 1 20 -12 120 -13 112 -1 -4 6 -1 7 8 1 20 -12 120
-13 112 -1 -4 6 -1 7 8 1 20 -12 120 -13 112 -1 -4 6 -1 7 8 1 20 -12 120 -13
112 -1 -4 6 -1 7 8 1 20 -12 120 -13 112 -1 -4 6 -1 7 8 1 20 -12 120 -13 112
-1 -4 6 -1 7 8 1 20 -12 120 -13 112 -1 -4 6 -1 7 8 1 20 -12 120 -13 112 -1
-4 6 -1 7 8 1 20 -12 120 -13 112 -1 -4 6 -1 7 8 1 20 -12 120 -13 112 -1 -4
6 -1 7 8 1 20 -12 120 -13 112 -1 -4 6 -1 7 8 1 20 -12 120 -13 112 -1 -4 6
-1 7 8 1 20 -12 120 -13 112 -1 -4 6 -1 7 8 1 21 -13 120 -13 112 0 -5 8 -3 8
8 0 12 -9 56 -11 104 -5 12 1 14 2545 2 2558 -13 12 -2547 10 -2556 -2z"/>
</g>
</svg>
